<svg width="100" height="100" viewBox="0 0 100 100" fill="none" xmlns="http://www.w3.org/2000/svg">
<g clip-path="url(#clip0_1_152)">
<path d="M45.1071 21.4101C45.6461 14.6334 43.5761 7.68809 38.8976 2.20551C38.8307 2.12735 38.7483 2.06388 38.6557 2.01907C38.5631 1.97426 38.4622 1.94909 38.3594 1.94513C38.2566 1.94117 38.154 1.95852 38.0582 1.99607C37.9624 2.03362 37.8754 2.09057 37.8027 2.16335L32.453 7.51308C32.3235 7.64292 32.2464 7.81593 32.2365 7.99903C32.2266 8.18213 32.2845 8.36245 32.3992 8.50552C37.8294 15.3184 37.3916 25.2704 31.0854 31.5766C24.7792 37.8828 14.8269 38.3208 8.01406 32.8907C7.871 32.776 7.69067 32.718 7.50757 32.728C7.32448 32.7379 7.15146 32.8149 7.02162 32.9444L1.67189 38.2943C1.59912 38.3671 1.54216 38.4541 1.50461 38.5499C1.46706 38.6457 1.44972 38.7482 1.45368 38.851C1.45764 38.9538 1.48281 39.0547 1.52762 39.1474C1.57242 39.24 1.6359 39.3223 1.71405 39.3893C12.0772 48.2327 27.6669 47.7556 37.4654 37.9571C40.4184 35.0041 42.5247 31.5252 43.7846 27.8219M79.5164 63.4215C83.883 63.0007 88.3788 64.23 91.9916 67.1097C92.1346 67.2244 92.3149 67.2823 92.498 67.2724C92.6811 67.2625 92.8541 67.1854 92.984 67.0559L98.3337 61.7062C98.4065 61.6335 98.4634 61.5465 98.501 61.4507C98.5386 61.3549 98.5559 61.2523 98.5519 61.1495C98.548 61.0467 98.5228 60.9458 98.478 60.8532C98.4332 60.7605 98.3697 60.6782 98.2916 60.6113C87.9284 51.7679 72.3387 52.245 62.5402 62.0434C52.7417 71.8419 52.2646 87.4317 61.108 97.7948C61.1749 97.873 61.2573 97.9365 61.3499 97.9813C61.4425 98.0261 61.5434 98.0512 61.6462 98.0552C61.7491 98.0592 61.8516 98.0418 61.9474 98.0043C62.0432 97.9667 62.1302 97.9098 62.2029 97.837L67.5527 92.4873C67.6821 92.3574 67.7592 92.1844 67.7691 92.0013C67.779 91.8182 67.7211 91.6379 67.6064 91.4948C62.1762 84.682 62.614 74.7299 68.9203 68.4237C70.1038 67.238 71.4529 66.2298 72.9254 65.4307M62.2029 2.16335L67.5527 7.51308C67.6821 7.64292 67.7592 7.81593 67.7691 7.99903C67.779 8.18213 67.7211 8.36245 67.6064 8.50552C62.1762 15.3184 62.614 25.2704 68.9203 31.5766C75.2265 37.8828 85.1787 38.3206 91.9916 32.8905C92.1346 32.7758 92.3149 32.7178 92.498 32.7278C92.6811 32.7377 92.8541 32.8147 92.984 32.9442L98.3337 38.294C98.4065 38.3667 98.4634 38.4537 98.501 38.5495C98.5386 38.6453 98.5559 38.7478 98.5519 38.8506C98.548 38.9535 98.5228 39.0543 98.478 39.147C98.4332 39.2396 98.3697 39.322 98.2916 39.3889C87.9284 48.2323 72.3387 47.7552 62.5402 37.9567C52.7417 28.1582 52.2646 12.5685 61.108 2.20531C61.1749 2.1272 61.2573 2.06376 61.35 2.01899C61.4426 1.97422 61.5435 1.94907 61.6463 1.94513C61.7491 1.94119 61.8516 1.95854 61.9474 1.99609C62.0432 2.03364 62.1302 2.09059 62.2029 2.16335ZM37.8027 97.837L32.453 92.4873C32.3235 92.3574 32.2464 92.1844 32.2365 92.0013C32.2266 91.8182 32.2845 91.6379 32.3992 91.4948C37.8294 84.682 37.3916 74.7299 31.0854 68.4237C24.7792 62.1175 14.8269 61.6795 8.01406 67.1097C7.871 67.2244 7.69067 67.2823 7.50757 67.2724C7.32448 67.2625 7.15146 67.1854 7.02162 67.0559L1.67189 61.7062C1.59912 61.6335 1.54216 61.5465 1.50461 61.4507C1.46706 61.3549 1.44972 61.2523 1.45368 61.1495C1.45764 61.0467 1.48281 60.9458 1.52762 60.8532C1.57242 60.7605 1.6359 60.6782 1.71405 60.6113C12.0772 51.7679 27.6669 52.245 37.4654 62.0434C47.2639 71.8419 47.741 87.4317 38.8976 97.7948C38.8307 97.873 38.7483 97.9365 38.6557 97.9813C38.5631 98.0261 38.4622 98.0512 38.3594 98.0552C38.2566 98.0592 38.154 98.0418 38.0582 98.0043C37.9624 97.9667 37.8754 97.9098 37.8027 97.837Z" stroke="#A6A001" stroke-width="2.90074" stroke-miterlimit="10" stroke-linecap="round" stroke-linejoin="round"/>
<path d="M50.0026 58.6043C54.7546 58.6043 58.6068 54.7521 58.6068 50.0002C58.6068 45.2482 54.7546 41.396 50.0026 41.396C45.2507 41.396 41.3984 45.2482 41.3984 50.0002C41.3984 54.7521 45.2507 58.6043 50.0026 58.6043Z" stroke="#A6A001" stroke-width="2.90074" stroke-miterlimit="10" stroke-linecap="round" stroke-linejoin="round"/>
<path d="M80.0449 25.9732C83.405 25.9732 86.1289 23.2493 86.1289 19.8892C86.1289 16.5291 83.405 13.8052 80.0449 13.8052C76.6848 13.8052 73.9609 16.5291 73.9609 19.8892C73.9609 23.2493 76.6848 25.9732 80.0449 25.9732Z" stroke="#A6A001" stroke-width="2.90074" stroke-miterlimit="10" stroke-linecap="round" stroke-linejoin="round"/>
<path d="M80.0449 86.1951C83.405 86.1951 86.1289 83.4712 86.1289 80.1111C86.1289 76.751 83.405 74.0271 80.0449 74.0271C76.6848 74.0271 73.9609 76.751 73.9609 80.1111C73.9609 83.4712 76.6848 86.1951 80.0449 86.1951Z" stroke="#A6A001" stroke-width="2.90074" stroke-miterlimit="10" stroke-linecap="round" stroke-linejoin="round"/>
<path d="M20.084 26.168C23.4441 26.168 26.168 23.4441 26.168 20.084C26.168 16.7239 23.4441 14 20.084 14C16.7239 14 14 16.7239 14 20.084C14 23.4441 16.7239 26.168 20.084 26.168Z" stroke="#A6A001" stroke-width="2.90074" stroke-miterlimit="10" stroke-linecap="round" stroke-linejoin="round"/>
<path d="M19.959 86.1951C23.3191 86.1951 26.043 83.4712 26.043 80.1111C26.043 76.751 23.3191 74.0271 19.959 74.0271C16.5989 74.0271 13.875 76.751 13.875 80.1111C13.875 83.4712 16.5989 86.1951 19.959 86.1951Z" stroke="#A6A001" stroke-width="2.90074" stroke-miterlimit="10" stroke-linecap="round" stroke-linejoin="round"/>
</g>
<defs>
<clipPath id="clip0_1_152">
<rect width="100" height="100" rx="20" fill="white"/>
</clipPath>
</defs>
</svg>
