<svg width="14" height="14" viewBox="0 0 14 14" fill="none" xmlns="http://www.w3.org/2000/svg">
<g clip-path="url(#clip0_1_274)">
<path d="M2.85367 9.30626C4.23452 10.9569 5.89677 12.2565 7.79399 13.1761C8.51633 13.5184 9.48234 13.9246 10.5586 13.9942C10.6253 13.9971 10.6891 14 10.7559 14C11.4782 14 12.0584 13.7505 12.5312 13.237C12.5341 13.2341 12.5399 13.2283 12.5428 13.2225C12.7111 13.0195 12.9026 12.8367 13.1027 12.6424C13.2391 12.5118 13.3783 12.3755 13.5118 12.2362C14.1297 11.5922 14.1297 10.7741 13.506 10.1504L11.7625 8.40696C11.4666 8.09946 11.1127 7.93701 10.7414 7.93701C10.37 7.93701 10.0132 8.09946 9.70862 8.40406L8.67008 9.4426C8.57435 9.38748 8.47571 9.33817 8.38288 9.29175C8.26684 9.23373 8.15951 9.17862 8.06378 9.1177C7.11807 8.5172 6.25939 7.73394 5.43842 6.72731C5.02358 6.20224 4.74509 5.76129 4.55072 5.31165C4.82341 5.06506 5.0787 4.80688 5.32528 4.5545C5.41231 4.46457 5.50224 4.37464 5.59217 4.28471C5.90547 3.9714 6.07373 3.60879 6.07373 3.24036C6.07373 2.87194 5.90837 2.50932 5.59217 2.19602L4.72768 1.33154C4.62615 1.23 4.53042 1.13137 4.43179 1.02984C4.24032 0.832574 4.04016 0.629507 3.84289 0.446747C3.54409 0.15375 3.19308 0 2.82176 0C2.45334 0 2.09942 0.153751 1.78902 0.449648L0.70406 1.5346C0.309531 1.92913 0.0861574 2.40779 0.0397422 2.96187C-0.0153759 3.6552 0.112266 4.39204 0.442975 5.28264C0.950642 6.66059 1.71649 7.93991 2.85367 9.30626ZM0.747575 3.02279C0.782386 2.63697 0.930335 2.31496 1.20883 2.03647L2.28798 0.957315C2.45624 0.794861 2.6419 0.710734 2.82176 0.710734C2.99871 0.710734 3.17857 0.794861 3.34393 0.963116C3.53829 1.14298 3.72105 1.33154 3.91832 1.5317C4.01695 1.63324 4.11848 1.73477 4.22002 1.8392L5.0845 2.70369C5.26436 2.88355 5.35719 3.06631 5.35719 3.24617C5.35719 3.42603 5.26436 3.60879 5.0845 3.78865C4.99457 3.87857 4.90464 3.97141 4.81471 4.06133C4.54492 4.33402 4.29254 4.59221 4.01405 4.83879L3.99954 4.85329C3.75876 5.09407 3.79648 5.32325 3.8545 5.49731C3.8574 5.50601 3.8603 5.51181 3.8632 5.52051C4.08657 6.05719 4.39697 6.56776 4.88143 7.17696C5.75172 8.25031 6.66842 9.08288 7.67795 9.724C7.80269 9.80522 7.93614 9.86904 8.06088 9.93286C8.17692 9.99088 8.28425 10.046 8.37998 10.1069C8.39159 10.1127 8.40029 10.1185 8.41189 10.1243C8.50762 10.1736 8.60046 10.1969 8.69329 10.1969C8.92536 10.1969 9.07621 10.0489 9.12553 9.99959L10.2105 8.91463C10.3787 8.74637 10.5615 8.65644 10.7414 8.65644C10.9618 8.65644 11.1417 8.79279 11.2548 8.91463L13.0041 10.661C13.3522 11.0091 13.3493 11.3862 12.9954 11.7547C12.8736 11.8852 12.7459 12.0099 12.6096 12.1405C12.4065 12.3378 12.1947 12.5408 12.0033 12.77C11.6697 13.1297 11.2722 13.298 10.7588 13.298C10.7094 13.298 10.6572 13.2951 10.6079 13.2922C9.6564 13.2312 8.77161 12.8599 8.10729 12.5437C6.3029 11.6705 4.71898 10.4318 3.40485 8.85951C2.32279 7.55698 1.59465 6.34438 1.11309 5.04476C0.814297 4.247 0.70116 3.60588 0.747575 3.02279Z" fill="#A6A001"/>
</g>
<defs>
<clipPath id="clip0_1_274">
<rect width="14" height="14" fill="white"/>
</clipPath>
</defs>
</svg>
