<svg width="100" height="100" viewBox="0 0 100 100" fill="none" xmlns="http://www.w3.org/2000/svg">
<g clip-path="url(#clip0_1_143)">
<path d="M78.0841 81.959L63.8721 96.171C63.2922 96.7509 62.5211 97.0702 61.7011 97.0702C60.8811 97.0702 60.11 96.7509 59.5301 96.171C58.9502 95.591 58.6308 94.8201 58.6308 93.9999C58.6308 93.1798 58.9502 92.4088 59.5301 91.8289L60.5544 90.8046C63.178 88.181 63.178 83.9122 60.5544 81.2886C57.9306 78.6648 53.6618 78.6648 51.0383 81.2886L49.1394 83.1874C47.2049 85.1219 44.6329 86.1872 41.8972 86.1872C39.1615 86.1872 36.5894 85.1217 34.6549 83.1874C32.7204 81.2529 31.6551 78.6808 31.6551 75.9449C31.6551 73.2092 32.7206 70.6372 34.6549 68.7027L39.022 64.3356C39.2967 64.0609 39.451 63.6883 39.451 63.2998C39.451 62.9113 39.2967 62.5387 39.022 62.264C38.7473 61.9893 38.3747 61.835 37.9862 61.835C37.5977 61.835 37.2251 61.9893 36.9504 62.264L32.5833 66.6311C27.4477 71.7667 27.4477 80.1233 32.5833 85.2592C35.0712 87.747 38.379 89.1172 41.8974 89.1172C45.4157 89.1172 48.7236 87.747 51.2114 85.2592L53.1104 83.3604C54.5917 81.8793 57.0018 81.8793 58.4829 83.3604C59.9641 84.8416 59.9641 87.2517 58.4829 88.733L57.4587 89.7573C56.3254 90.8906 55.7011 92.3973 55.7011 93.9999C55.7011 95.6026 56.3252 97.1093 57.4587 98.2426C58.5919 99.3758 60.0987 100 61.7013 100C63.3041 100 64.8109 99.376 65.9441 98.2426L80.1561 84.0306C80.4308 83.7558 80.5851 83.3833 80.5851 82.9948C80.5851 82.6063 80.4308 82.2337 80.1561 81.959C79.8813 81.6842 79.5087 81.5299 79.1201 81.5299C78.7316 81.5299 78.3589 81.6842 78.0841 81.959ZM19.344 55.6439L2.29673 72.6912C0.213592 74.7744 0.213592 78.1638 2.29673 80.2469C3.33839 81.2886 4.70644 81.8093 6.07449 81.8093C7.44254 81.8093 8.81079 81.2886 9.85226 80.2469L26.8996 63.1996C28.9827 61.1165 28.9827 57.727 26.8996 55.6439C24.8164 53.5608 21.4272 53.5608 19.344 55.6439ZM24.828 61.1278L7.78065 78.1751C6.83997 79.1158 5.30921 79.1158 4.36834 78.1751C3.42746 77.2345 3.42765 75.7037 4.36834 74.7628L21.4157 57.7155C21.886 57.2452 22.504 57.01 23.1218 57.01C23.7396 57.01 24.3576 57.2452 24.828 57.7155C25.7687 58.6564 25.7687 60.1871 24.828 61.1278Z" fill="white"/>
<path d="M99.2545 21.0094C99.2545 13.6931 93.3021 7.7408 85.9859 7.7408C78.6696 7.7408 72.7175 13.6931 72.7175 21.0094C72.7163 22.7395 73.0554 24.4529 73.7156 26.0521C72.8113 26.5947 71.9577 27.2533 71.1789 28.0321L65.3885 33.8225C63.858 35.353 61.3674 35.353 59.8366 33.8225C58.3061 32.2917 58.3061 29.8011 59.8366 28.2704L65.627 22.48C68.1149 19.9921 69.4851 16.6845 69.4851 13.1659C69.4851 9.64756 68.1149 6.33974 65.627 3.85189C60.4914 -1.28396 52.1346 -1.28396 46.999 3.85189L24.1948 26.656C19.0592 31.7917 19.0592 40.1482 24.1948 45.2841C29.9438 51.034 38.8744 49.9979 43.6997 44.4071C45.2305 42.8767 47.7209 42.8765 49.2516 44.4071C49.9931 45.1485 50.4015 46.1345 50.4015 47.183C50.4015 48.2315 49.9933 49.2175 49.2516 49.959L41.7863 57.4243C41.5116 57.699 41.3573 58.0716 41.3573 58.4601C41.3573 58.8486 41.5116 59.2212 41.7863 59.4959C42.0611 59.7706 42.4336 59.9249 42.8221 59.9249C43.2106 59.9249 43.5832 59.7706 43.8579 59.4959L51.3232 52.0306C52.618 50.7358 53.3312 49.0142 53.3312 47.183C53.3312 45.3519 52.618 43.6303 51.3232 42.3353C48.6504 39.6625 44.3011 39.6623 41.6279 42.3353C37.5415 47.2114 30.454 47.4102 26.2664 43.2123C22.273 39.2189 22.273 32.7212 26.2664 28.7276L49.0706 5.9235C51.0051 3.98901 53.5771 2.92371 56.313 2.92371C59.0487 2.92371 61.6207 3.98921 63.5552 5.9235C65.4897 7.858 66.555 10.43 66.555 13.1657C66.555 15.9015 65.4895 18.4735 63.5552 20.408L57.7648 26.1984C55.0918 28.8714 55.0918 33.2209 57.7648 35.8939C60.4378 38.5669 64.7871 38.5671 67.4602 35.8939L73.2505 30.1035C73.8164 29.5379 74.4461 29.04 75.127 28.62C78.154 33.1046 84.5266 35.5142 90.0439 33.6406C90.5017 34.8222 90.736 36.0785 90.735 37.3457C90.735 40.0814 89.6695 42.6535 87.7352 44.588L66.7996 65.524C65.5286 66.7948 64.8287 68.4847 64.8287 70.2819C64.8287 72.0791 65.5286 73.769 66.7996 75.0398C68.0703 76.3108 69.7603 77.0106 71.5575 77.0106C73.3546 77.0106 75.0446 76.3108 76.3154 75.0398L80.6016 70.7538C81.1815 70.1739 81.9526 69.8545 82.7726 69.8545C83.5926 69.8545 84.3637 70.1739 84.9436 70.7538C86.1406 71.9509 86.1406 73.8987 84.9436 75.0957L82.9337 77.1057C82.659 77.3805 82.5047 77.753 82.5047 78.1415C82.5047 78.53 82.659 78.9026 82.9337 79.1773C83.2197 79.4635 83.5947 79.6065 83.9696 79.6065C84.3444 79.6065 84.7194 79.4635 85.0053 79.1773L87.0152 77.1673C89.3546 74.8279 89.3546 71.0214 87.0152 68.682C85.882 67.5487 84.375 66.9245 82.7724 66.9245C81.1698 66.9245 79.663 67.5485 78.5296 68.682L74.2434 72.968C73.5257 73.6856 72.5718 74.0807 71.5571 74.0807C70.5424 74.0807 69.5884 73.6856 68.8708 72.968C68.1534 72.2504 67.7582 71.2964 67.7582 70.2817C67.7582 69.267 68.1534 68.3128 68.8708 67.5954L89.8066 46.6596C92.2945 44.1717 93.6647 40.8641 93.6647 37.3455C93.6665 35.6633 93.3458 33.9963 92.7199 32.4349C96.6271 30.1236 99.2545 25.8687 99.2545 21.0094ZM85.9859 31.3481C82.7126 31.3481 79.792 29.8173 77.8963 27.4361C81.63 26.4478 86.0486 27.7488 88.5505 31.0258C87.7125 31.2402 86.8509 31.3485 85.9859 31.3481ZM91.329 29.8572C88.219 25.1299 81.5749 23.0052 76.3847 24.8366C75.8971 23.6195 75.6469 22.3204 75.6474 21.0094C75.6474 15.3086 80.2851 10.6707 85.9859 10.6707C91.6866 10.6707 96.3246 15.3086 96.3246 21.0094C96.3246 24.7563 94.321 28.0436 91.329 29.8572ZM12.1863 19.6603C15.4724 19.6603 18.146 16.9867 18.146 13.7005C18.146 10.4144 15.4724 7.7408 12.1863 7.7408C8.90016 7.7408 6.22656 10.4144 6.22656 13.7005C6.22656 16.9867 8.90016 19.6603 12.1863 19.6603ZM12.1863 10.6707C13.8569 10.6707 15.2162 12.0297 15.2162 13.7005C15.2162 15.3713 13.8571 16.7304 12.1863 16.7304C10.5155 16.7304 9.15643 15.3713 9.15643 13.7005C9.15643 12.0297 10.5157 10.6707 12.1863 10.6707Z" fill="white"/>
</g>
<defs>
<clipPath id="clip0_1_143">
<rect width="100" height="100" rx="20" fill="white"/>
</clipPath>
</defs>
</svg>
