<svg width="97" height="39" viewBox="0 0 97 39" fill="none" xmlns="http://www.w3.org/2000/svg">
<path d="M18.7576 35.7963H0V38.4802H18.7576V35.7963Z" fill="#939393"/>
<path d="M18.7576 30.6998H0V33.3838H18.7576V30.6998Z" fill="#939393"/>
<path d="M13.4191 25.573H5.36719V28.257H13.4191V25.573Z" fill="#939393"/>
<path d="M13.4191 20.4463H5.36719V23.1303H13.4191V20.4463Z" fill="#939393"/>
<path d="M13.4191 15.3501H5.36719V18.0341H13.4191V15.3501Z" fill="#939393"/>
<path d="M13.4191 10.2231H5.36719V12.9071H13.4191V10.2231Z" fill="#939393"/>
<path d="M18.7576 5.09656H0V7.78052H18.7576V5.09656Z" fill="#939393"/>
<path d="M18.7576 0H0V2.68397H18.7576V0Z" fill="#939393"/>
<path d="M21.4375 33.3837H50.0564C50.5389 32.5393 50.9008 31.6346 51.1421 30.6997H21.4677V33.3837H21.4375Z" fill="#939393"/>
<path d="M47.8017 20.4463H26.8125V23.1303H50.0635C49.4604 22.1351 48.7064 21.2304 47.8017 20.4463Z" fill="#939393"/>
<path d="M26.8125 15.3501V18.0341H47.8017C48.7064 17.2801 49.4604 16.3754 50.0333 15.3501H26.8125Z" fill="#939393"/>
<path d="M50.0575 5.09644H21.4688V7.7804H51.1432C50.9019 6.84554 50.54 5.94083 50.0575 5.09644Z" fill="#939393"/>
<path d="M41.1903 0H21.4375V2.68397H48.0962C46.1963 0.934867 43.7235 0 41.1903 0Z" fill="#939393"/>
<path d="M34.8644 10.2231H26.8125V12.9071H34.8644V10.2231Z" fill="#939393"/>
<path d="M42.3984 12.9071H51.0535C51.2947 12.0326 51.4154 11.1279 51.4154 10.2231H42.3984V12.9071Z" fill="#939393"/>
<path d="M34.8644 25.573H26.8125V28.257H34.8644V25.573Z" fill="#939393"/>
<path d="M42.3984 25.573V28.257H51.4154C51.4154 27.3523 51.2947 26.4475 51.0535 25.573H42.3984Z" fill="#939393"/>
<path d="M21.4375 38.4802L41.1903 38.5104C43.7536 38.5104 46.2265 37.5454 48.0962 35.8264H21.4375V38.4802Z" fill="#939393"/>
<path d="M75.0599 38.4804L75.9947 35.7964H74.125L75.0599 38.4804Z" fill="#939393"/>
<path d="M73.2775 33.3837H76.836L77.7709 30.6997H72.3125L73.2775 33.3837Z" fill="#939393"/>
<path d="M71.4739 28.257H78.6513L79.5861 25.573H70.5391L71.4739 28.257Z" fill="#939393"/>
<path d="M69.6614 23.1303H80.4275L81.3925 20.4463H68.7266L69.6614 23.1303Z" fill="#939393"/>
<path d="M58.9844 12.9071H73.4597L72.5248 10.2231H58.9844V12.9071Z" fill="#939393"/>
<path d="M78.4375 7.7804H96.5015V5.09644H79.3724L78.4375 7.7804Z" fill="#939393"/>
<path d="M81.1536 0L80.2188 2.68397H96.5035V0H81.1536Z" fill="#939393"/>
<path d="M67.0069 35.7964H53.6172V38.4804H67.0069V35.7964Z" fill="#939393"/>
<path d="M67.0069 30.6997H53.6172V33.3837H67.0069V30.6997Z" fill="#939393"/>
<path d="M67.0363 25.573H58.9844V28.257H67.0363V25.573Z" fill="#939393"/>
<path d="M67.0363 20.4463H58.9844V23.1303H67.0363V20.4463Z" fill="#939393"/>
<path d="M91.1394 10.2231H77.5989L76.6641 12.9071H91.1394V10.2231Z" fill="#939393"/>
<path d="M83.1099 18.0341H91.1317V15.3501H83.1099H75.8119L75.058 17.5214L74.3041 15.3501H67.0061H58.9844V18.0341H67.0061V15.5612L67.8807 18.0341H82.2354L83.1099 15.5612V18.0341Z" fill="#939393"/>
<path d="M91.1613 20.4463H83.1094V23.1303H91.1613V20.4463Z" fill="#939393"/>
<path d="M91.1613 25.573H83.1094V28.257H91.1613V25.573Z" fill="#939393"/>
<path d="M96.499 30.6997H83.1094V33.3837H96.499V30.6997Z" fill="#939393"/>
<path d="M96.499 35.7964H83.1094V38.4804H96.499V35.7964Z" fill="#939393"/>
<path d="M71.6812 7.7804L70.7463 5.09644H53.6172V7.7804H71.6812Z" fill="#939393"/>
<path d="M69.9019 2.68397L68.9671 0H53.6172V2.68397H69.9019Z" fill="#939393"/>
</svg>
