<svg width="147" height="39" viewBox="0 0 147 39" fill="none" xmlns="http://www.w3.org/2000/svg">
<path d="M21.9253 28.6656L25.0192 37.5371C25.1218 37.7593 25.2756 37.8619 25.5491 37.8619H31.4977C31.8224 37.8619 31.8737 37.708 31.8224 37.3833L19.5322 3.24763C19.4809 2.97413 19.4297 2.92285 19.1562 2.92285H11.7718C11.5667 2.92285 11.447 3.07669 11.447 3.29891C11.3444 5.09372 11.1906 5.64071 10.9684 6.17061L0.0114817 37.332C-0.0398042 37.7081 0.0798748 37.8619 0.387546 37.8619H5.70361C6.0284 37.8619 6.18223 37.7593 6.30189 37.4345L9.22487 28.6656H21.9253ZM10.9171 22.8709C12.5239 18.0164 14.6435 11.7944 15.4982 8.23892H15.5495C16.6093 11.9653 19.1049 19.3497 20.2331 22.8709H10.9171Z" fill="#939393"/>
<path d="M47.622 38.3919C50.8185 38.3919 54.2201 37.8107 57.673 36.3236C57.9465 36.221 57.9978 36.1014 57.9978 35.845C57.8952 34.8878 57.7756 33.5032 57.7756 32.4434V0.307684C57.7756 0.102563 57.7756 0 57.5192 0H51.7245C51.5023 0 51.3997 0.102563 51.3997 0.376058V11.2646C50.4937 11.162 49.8613 11.1108 49.1092 11.1108C39.759 11.1108 34.0156 17.2815 34.0156 24.9906C34.0156 33.9305 39.9129 38.3919 47.622 38.3919ZM51.3997 32.4434C50.4424 32.7511 49.3827 32.8707 48.3058 32.8707C44.0666 32.8707 40.5966 30.4776 40.5966 24.6659C40.5966 19.5207 44.1691 16.4781 48.904 16.4781C49.8613 16.4781 50.6988 16.5807 51.3997 16.8542V32.4434Z" fill="#939393"/>
<path d="M76.4852 11.1108C68.5025 11.1108 63.5625 17.2303 63.5625 24.7856C63.5625 31.5375 67.494 38.392 76.3655 38.392C83.8695 38.392 89.1343 32.8708 89.1343 24.6147C89.1343 17.3329 84.6729 11.1108 76.4852 11.1108ZM76.1604 16.4782C80.6731 16.4782 82.5875 20.3584 82.5875 24.7856C82.5875 30.2555 79.7671 32.9734 76.4852 32.9734C72.434 32.9734 70.0409 29.5718 70.0409 24.666C70.0409 19.6234 72.5879 16.4782 76.1604 16.4782Z" fill="#939393"/>
<path d="M95.1261 0C94.9038 0 94.75 0.102563 94.75 0.376058V36.7509C94.75 36.9048 94.9038 37.1783 95.1261 37.2296C97.673 38.0159 100.34 38.3919 103.092 38.3919C110.972 38.3919 118.63 33.5032 118.63 23.6574C118.63 16.5294 113.741 11.1108 106.083 11.1108C104.322 11.1108 102.681 11.3842 101.246 11.8629L101.177 0.427336C101.177 0.0512815 101.075 0 100.699 0H95.1261ZM112.083 24.3069C112.083 30.2042 108.049 32.9733 103.69 32.9733C102.784 32.9733 101.981 32.922 101.246 32.6998V17.1789C102.083 16.8542 103.092 16.5807 104.955 16.5807C109.16 16.5807 112.083 19.2472 112.083 24.3069Z" fill="#939393"/>
<path d="M140.258 26.2215C142.856 26.2215 144.993 26.1702 145.728 25.9992C146.001 25.948 146.104 25.8454 146.155 25.6232C146.309 25.042 146.378 23.8284 146.378 22.3412C146.378 17.2816 143.335 11.1108 135.472 11.1108C127.438 11.1108 122.977 17.6576 122.977 25.042C122.977 31.5888 126.429 38.392 136.104 38.392C139.728 38.392 142.07 37.8108 144.087 36.8536C144.292 36.751 144.395 36.5801 144.395 36.2724V31.8452C144.395 31.5888 144.241 31.5375 144.087 31.6401C142.07 32.4948 139.882 32.9221 137.489 32.9221C132.07 32.9221 129.609 29.9307 129.455 26.2215H140.258ZM129.455 21.6404C129.882 19.0422 131.523 16.2218 135.198 16.2218C139.25 16.2218 140.309 19.6234 140.309 21.1618C140.309 21.2131 140.309 21.4353 140.309 21.5891C140.087 21.6404 139.403 21.6404 137.386 21.6404H129.455Z" fill="#939393"/>
</svg>
