<svg width="239" height="38" viewBox="0 0 239 38" fill="none" xmlns="http://www.w3.org/2000/svg">
<path d="M9.04893 10.4833C8.87408 9.78269 8.91779 9.08212 9.00522 8.68805C9.22379 7.5934 9.96694 6.41118 12.109 6.41118C14.1198 6.41118 15.2564 7.63718 15.2564 9.51998C15.2564 10.133 15.2564 11.6217 15.2564 11.6217H23.7371V9.21348C23.7808 1.76987 17.0924 0.587646 12.2838 0.587646C6.2512 0.587646 1.31144 2.6018 0.393432 8.16261C0.131144 9.69512 0.0874293 11.0525 0.480861 12.7601C1.96716 19.7221 14.0761 21.7363 15.8247 26.1586C16.1744 26.9906 16.0433 28.0414 15.9121 28.6982C15.6498 29.8367 14.863 31.0189 12.5898 31.0189C10.4478 31.0189 9.18008 29.7929 9.18008 27.9101V24.6261H0V27.2533C0 34.872 5.98891 37.1489 12.3712 37.1489C18.535 37.1489 23.5622 35.0472 24.3928 29.355C24.7862 26.4214 24.4802 24.4948 24.3491 23.7942C22.9502 16.5695 10.0107 14.4678 9.04893 10.4833ZM119.778 10.5271C119.647 9.87027 119.691 9.12591 119.734 8.77562C119.997 7.68097 120.696 6.49875 122.838 6.49875C124.805 6.49875 125.942 7.72476 125.942 9.56377C125.942 10.1768 125.942 11.6655 125.942 11.6655H134.335V9.30105C134.335 1.94501 127.778 0.806576 123.013 0.806576C117.024 0.806576 112.128 2.77694 111.21 8.29397C110.992 9.78269 110.904 11.1401 111.298 12.8477C112.74 19.7221 124.718 21.7363 126.467 26.1149C126.773 26.9468 126.685 27.9976 126.51 28.6107C126.248 29.7491 125.505 30.8875 123.232 30.8875C121.133 30.8875 119.822 29.6615 119.822 27.8225V24.5386H110.773V27.1219C110.773 34.6531 116.674 36.93 123.013 36.93C129.089 36.93 134.117 34.8283 134.903 29.2237C135.297 26.29 134.991 24.4072 134.86 23.7066C133.505 16.6133 120.74 14.5116 119.778 10.5271ZM197.066 29.1361L189.066 1.6823H176.432V35.4413H184.782L184.301 7.11175L192.913 35.4413H205.022V1.6823H196.629L197.066 29.1361ZM36.458 1.6823L30.1194 35.7915H39.2995L44.0644 4.22188L48.6981 35.7915H57.8345L51.5833 1.6823H36.458ZM87.8665 1.6823L83.5824 28.3479L79.2984 1.6823H65.3971L64.654 35.7915H73.1783L73.3969 4.22188L79.2547 35.7915H87.8665L93.7242 4.22188L93.9428 35.7915H102.467L101.724 1.6823H87.8665ZM166.99 1.6823H158.378V26.903C158.378 27.3409 158.378 27.8225 158.291 28.2166C158.116 29.0485 157.416 30.7124 155.012 30.7124C152.652 30.7124 151.952 29.0923 151.777 28.2166C151.69 27.8663 151.69 27.3409 151.69 26.903V1.6823H143.078V26.1149C143.078 26.7279 143.122 28.0414 143.166 28.3479C143.778 34.6969 148.761 36.7986 155.012 36.7986C161.263 36.7986 166.291 34.7407 166.903 28.3479C166.946 27.9976 167.034 26.7279 166.99 26.1149V1.6823ZM226.092 16.6133V21.6049H229.589V26.5527C229.589 26.9906 229.589 27.4722 229.502 27.8663C229.371 28.7858 228.497 30.3621 226.005 30.3621C223.557 30.3621 222.682 28.7858 222.551 27.8663C222.508 27.4722 222.464 26.9906 222.464 26.5527V10.9649C222.464 10.3957 222.508 9.82648 222.639 9.34484C222.814 8.5129 223.557 6.89282 226.005 6.89282C228.628 6.89282 229.24 8.60047 229.415 9.34484C229.502 9.82648 229.502 10.6584 229.502 10.6584V12.5412H238.07V11.4028C238.07 11.4028 238.114 10.2206 238.026 9.12591C237.371 2.77694 232.081 0.76279 226.048 0.76279C220.016 0.76279 214.858 2.82073 214.114 9.16969C214.027 9.73891 213.94 10.7898 213.94 11.4466V25.7646C213.94 26.3776 213.94 26.8592 214.071 27.9976C214.639 34.2153 220.016 36.4045 226.048 36.4045C232.125 36.4045 237.458 34.2153 238.026 27.9976C238.114 26.8592 238.157 26.3776 238.157 25.7646V16.6133H226.092Z" fill="#939393"/>
</svg>
