<svg width="181" height="36" viewBox="0 0 181 36" fill="none" xmlns="http://www.w3.org/2000/svg">
<path d="M18.8343 22.7862L17.3473 27.0026H17.2234C16.9756 26.0519 16.5213 24.6051 15.7778 22.8689L7.8063 2.82047H0V34.774H5.1629V15.0562C5.1629 13.8161 5.1629 12.4107 5.12159 10.6745C5.08029 9.80643 4.99769 9.14503 4.95638 8.64899H5.08029C5.32811 9.8891 5.61723 10.7985 5.82375 11.3772L15.4061 34.6913H19.0408L28.5405 11.1705C28.747 10.6332 28.9535 9.5584 29.16 8.64899H29.284C29.16 11.0052 29.0774 13.1134 29.0361 14.3948V34.65H34.5295V2.7378H27.0123L18.8343 22.7862ZM39.7337 11.7493H45.1031V34.65H39.7337V11.7493ZM42.4597 2.07641C41.551 2.07641 40.8075 2.4071 40.188 2.98582C39.5685 3.56454 39.238 4.30861 39.238 5.21802C39.238 6.0861 39.5685 6.83016 40.188 7.40888C40.8075 7.9876 41.551 8.27696 42.4597 8.27696C43.3683 8.27696 44.1531 7.94626 44.7313 7.40888C45.3509 6.83016 45.6813 6.0861 45.6813 5.21802C45.6813 4.34994 45.3509 3.60588 44.7313 2.98582C44.1944 2.4071 43.4096 2.07641 42.4597 2.07641ZM64.1439 11.5426C63.1526 11.3359 62.12 11.2119 61.1287 11.2119C58.6918 11.2119 56.4615 11.7493 54.6028 12.824C52.7442 13.8988 51.2573 15.3869 50.3073 17.2471C49.316 19.1486 48.8204 21.3395 48.8204 23.861C48.8204 26.0519 49.316 27.9947 50.266 29.7722C51.216 31.5084 52.5377 32.9138 54.3137 33.8646C56.0071 34.8153 57.9897 35.3114 60.22 35.3114C62.7808 35.3114 64.9699 34.774 66.7047 33.7819L66.746 33.7406V28.7801L66.5394 28.9455C65.7547 29.5242 64.846 30.0202 63.9373 30.3096C62.9874 30.6403 62.12 30.8056 61.3765 30.8056C59.2288 30.8056 57.5353 30.1856 56.3376 28.8214C55.0985 27.4987 54.4789 25.6798 54.4789 23.4063C54.4789 21.0501 55.0985 19.1899 56.3789 17.8258C57.6593 16.4617 59.3527 15.759 61.4178 15.759C63.1526 15.759 64.9286 16.3377 66.5394 17.4951L66.746 17.6605V12.4107L66.7047 12.3693C66.0025 12.08 65.2177 11.7493 64.1439 11.5426ZM81.8629 11.3772C80.5412 11.3772 79.3021 11.7906 78.2282 12.6587C77.3196 13.4027 76.7 14.4775 76.1631 15.759H76.1218V11.7493H70.7524V34.65H76.1218V22.9516C76.1218 20.9674 76.5348 19.3139 77.4435 18.1152C78.3521 16.8751 79.5086 16.255 80.9129 16.255C81.4086 16.255 81.9042 16.379 82.5238 16.4617C83.102 16.627 83.515 16.7924 83.8042 16.9991L84.0107 17.1644V11.7906L83.8868 11.7493C83.5151 11.5012 82.7716 11.3772 81.8629 11.3772ZM96.4843 11.2532C92.7257 11.2532 89.7105 12.3693 87.6041 14.5602C85.4563 16.751 84.4237 19.7686 84.4237 23.5716C84.4237 27.1266 85.4976 30.0202 87.5628 32.1284C89.6279 34.1953 92.4365 35.27 95.9473 35.27C99.6233 35.27 102.556 34.1539 104.662 31.9217C106.81 29.6895 107.843 26.7133 107.843 23.0343C107.843 19.3966 106.851 16.503 104.827 14.3948C102.886 12.2866 100.036 11.2532 96.4843 11.2532ZM100.78 28.8628C99.7885 30.1442 98.219 30.7643 96.2777 30.7643C94.3365 30.7643 92.767 30.1442 91.6518 28.7801C90.5366 27.4987 89.9996 25.6385 89.9996 23.2823C89.9996 20.8434 90.5779 18.9832 91.6518 17.6605C92.767 16.3377 94.2952 15.6763 96.2364 15.6763C98.1364 15.6763 99.6233 16.2963 100.697 17.5778C101.771 18.8592 102.349 20.7194 102.349 23.1583C102.267 25.6385 101.812 27.5813 100.78 28.8628ZM119.821 21.2568C118.127 20.554 117.053 20.0167 116.558 19.562C116.145 19.1486 115.938 18.5699 115.938 17.8258C115.938 17.2057 116.186 16.5857 116.805 16.1723C117.425 15.759 118.127 15.5523 119.16 15.5523C120.068 15.5523 121.018 15.7176 121.927 15.9656C122.836 16.2137 123.662 16.5857 124.323 17.0817L124.529 17.2471V12.204L124.405 12.1626C123.786 11.9146 122.96 11.6666 121.968 11.4599C120.977 11.2946 120.068 11.2119 119.325 11.2119C116.764 11.2119 114.658 11.8319 113.006 13.1961C111.353 14.4775 110.569 16.2137 110.569 18.2392C110.569 19.3139 110.734 20.2647 111.106 21.0501C111.477 21.8355 112.014 22.5796 112.758 23.1996C113.501 23.7783 114.575 24.4397 116.062 25.0598C117.301 25.5972 118.251 26.0105 118.829 26.3412C119.408 26.6719 119.779 27.044 120.068 27.3333C120.275 27.664 120.399 28.0774 120.399 28.6148C120.399 30.1442 119.242 30.8883 116.888 30.8883C115.979 30.8883 115.029 30.7229 113.914 30.3509C112.799 29.9789 111.766 29.4415 110.899 28.8214L110.693 28.6561V33.9059L110.816 33.9472C111.601 34.3193 112.551 34.5673 113.708 34.8566C114.864 35.0633 115.897 35.2287 116.805 35.2287C119.573 35.2287 121.844 34.6086 123.455 33.2445C125.107 31.9217 125.975 30.2269 125.975 28.036C125.975 26.5066 125.562 25.1425 124.653 24.109C123.455 23.1169 121.968 22.0835 119.821 21.2568ZM140.142 11.2532C136.383 11.2532 133.368 12.3693 131.262 14.5602C129.155 16.751 128.081 19.7686 128.081 23.5716C128.081 27.1266 129.155 30.0202 131.22 32.1284C133.285 34.1953 136.094 35.27 139.605 35.27C143.281 35.27 146.213 34.1539 148.32 31.9217C150.468 29.6895 151.5 26.7133 151.5 23.0343C151.5 19.3966 150.509 16.503 148.485 14.3948C146.544 12.2866 143.694 11.2532 140.142 11.2532ZM144.396 28.8628C143.405 30.1442 141.835 30.7643 139.894 30.7643C137.911 30.7643 136.383 30.1442 135.268 28.7801C134.153 27.4987 133.616 25.6385 133.616 23.2823C133.616 20.8434 134.194 18.9832 135.268 17.6605C136.383 16.3377 137.911 15.6763 139.853 15.6763C141.711 15.6763 143.239 16.2963 144.313 17.5778C145.387 18.8592 145.965 20.7194 145.965 23.1583C145.965 25.6385 145.429 27.5813 144.396 28.8628ZM180.206 16.1723V11.7493H174.795V4.97L174.63 5.01134L169.508 6.5408L169.384 6.58214V11.7493H161.289V8.85568C161.289 7.53289 161.619 6.49947 162.198 5.83808C162.776 5.17668 163.643 4.84599 164.717 4.84599C165.461 4.84599 166.245 5.01134 167.113 5.38337L167.319 5.50738V0.836299L167.195 0.794962C166.452 0.54694 165.461 0.381592 164.18 0.381592C162.569 0.381592 161.165 0.753625 159.885 1.37368C158.604 2.07641 157.654 3.02716 156.952 4.30861C156.25 5.54872 155.878 6.95417 155.878 8.56632V11.7493H152.12V16.131H155.878V34.65H161.289V16.1723H169.384V27.9534C169.384 32.7898 171.656 35.2287 176.199 35.2287C176.943 35.2287 177.728 35.1047 178.471 34.9807C179.256 34.8153 179.834 34.6086 180.165 34.4433L180.206 34.4019V29.9789L179.999 30.1442C179.669 30.3509 179.38 30.5163 178.884 30.6403C178.471 30.7643 178.099 30.8056 177.81 30.8056C176.736 30.8056 175.993 30.5576 175.456 29.9375C174.96 29.3588 174.712 28.4081 174.712 27.0026V16.1723H180.206Z" fill="#939393"/>
</svg>
